<?xml version="1.0" encoding="UTF-8"?>
<svg width="438px" height="533px" viewBox="0 0 438 533" version="1.1" xmlns="http://www.w3.org/2000/svg" xmlns:xlink="http://www.w3.org/1999/xlink">
    <title>study</title>
    <defs>
        <filter x="-2.9%" y="-2.3%" width="105.7%" height="104.7%" filterUnits="objectBoundingBox" id="filter-1">
            <feOffset dx="0" dy="2" in="SourceAlpha" result="shadowOffsetOuter1"></feOffset>
            <feGaussianBlur stdDeviation="2" in="shadowOffsetOuter1" result="shadowBlurOuter1"></feGaussianBlur>
            <feColorMatrix values="0 0 0 0 0   0 0 0 0 0   0 0 0 0 0  0 0 0 0.5 0" type="matrix" in="shadowBlurOuter1" result="shadowMatrixOuter1"></feColorMatrix>
            <feMerge>
                <feMergeNode in="shadowMatrixOuter1"></feMergeNode>
                <feMergeNode in="SourceGraphic"></feMergeNode>
            </feMerge>
        </filter>
    </defs>
    <g id="Page-1" stroke="none" stroke-width="1" fill="none" fill-rule="evenodd">
        <g id="study" filter="url(#filter-1)" transform="translate(9.002700, 9.768500)" fill="#FFFFFF" fill-rule="nonzero">
            <path d="M396.6673,306.0515 L396.6673,222.2355 C396.663393,218.6105 394.9798,215.1925 392.1087,212.9855 C389.2493,210.7394 385.4915,209.9894 381.9917,210.966 L338.5817,222.544 C324.5157,194.239 298.4727,173.747 267.6517,166.735 C288.1357,150.645 300.9607,126.731 303.0347,100.766 C305.1089,74.805 296.2417,49.157 278.5737,30.02 C260.9057,10.883 236.0467,0 209.9997,0 C183.9527,0 159.0937,10.883 141.4257,30.02 C123.7577,49.157 114.8907,74.805 116.9647,100.766 C119.0389,126.731 131.8627,150.645 152.3477,166.735 C121.5277,173.7467 95.4847,194.239 81.4177,222.544 L38.0077,210.966 C34.5077,209.98162 30.746,210.73162 27.8907,212.9855 C25.0196,215.1925 23.336,218.6105 23.3321,222.2355 L23.3321,306.0515 C16.5274,308.446 10.6331,312.8913 6.4531,318.7745 C2.2773,324.6573 0.0234,331.6885 0,338.9035 L0,362.2355 C0.023438,369.4503 2.2773,376.4815 6.4531,382.3645 C10.6328,388.2434 16.5271,392.6885 23.3321,395.0875 L23.3321,455.5675 C23.3321,460.8527 26.8868,465.4777 31.9923,466.8375 L206.9923,513.5055 C208.9611,514.03675 211.0392,514.03675 213.0079,513.5055 L388.0079,466.8375 C393.1134,465.4781 396.6681,460.8531 396.6681,455.5675 L396.6681,395.0875 C403.4728,392.6891 409.3671,388.2437 413.5471,382.3645 C417.7229,376.4817 419.9768,369.4505 420.0002,362.2355 L420.0002,338.9035 C419.976762,331.6887 417.7229,324.6575 413.5471,318.7745 C409.3674,312.8917 403.4731,308.4465 396.6681,306.0515 L396.6673,306.0515 Z M139.9973,93.9015 C139.9973,75.3355 147.3723,57.5305 160.5013,44.4015 C173.6263,31.2765 191.4313,23.9015 209.9973,23.9015 C228.5633,23.9015 246.3683,31.2765 259.4933,44.4015 C272.6223,57.5305 279.9973,75.3355 279.9973,93.9015 C279.9973,112.4635 272.6223,130.2685 259.4933,143.3975 C246.3683,156.5265 228.5633,163.9015 209.9973,163.9015 C191.4383,163.878062 173.6453,156.4992 160.5203,143.3745 C147.3993,130.2535 140.0163,112.4605 139.9973,93.9015 Z M23.3273,338.9015 C23.335113,332.4601 28.5539,327.2415 34.9953,327.2335 L46.6633,327.2335 C54.9992,327.2335 62.7023,331.6827 66.8703,338.9015 C71.0383,346.1203 71.0383,355.0145 66.8703,362.2335 C62.7023,369.4525 54.9993,373.9015 46.6633,373.9015 L34.9953,373.9015 C28.5539,373.893687 23.3353,368.6749 23.3273,362.2335 L23.3273,338.9015 Z M198.3273,487.0415 L46.6673,446.5965 L46.6673,397.2295 C63.3393,397.2295 78.7453,388.335 87.0813,373.8975 C95.4172,359.4565 95.4172,341.6675 87.0813,327.2295 C78.7454,312.7915 63.3393,303.8975 46.6673,303.8975 L46.6673,237.4175 L198.3373,277.8625 L198.3273,487.0415 Z M209.9953,256.8315 L104.3053,228.6515 C111.4069,216.1395 121.6803,205.7255 134.0903,198.4565 C146.5003,191.1831 160.6103,187.3115 174.9923,187.2335 L244.9923,187.2335 C259.3753,187.311625 273.4843,191.1827 285.8943,198.4565 C298.3043,205.726 308.5783,216.1405 315.6793,228.6515 L209.9953,256.8315 Z M373.3253,446.6015 L221.6653,487.0465 L221.6653,277.8665 L373.3353,237.4215 L373.331393,303.9015 C356.659393,303.9015 341.253393,312.796 332.917393,327.2335 C324.581493,341.6715 324.581493,359.4605 332.917393,373.9015 C341.253293,388.3395 356.659393,397.2335 373.331393,397.2335 L373.3253,446.6015 Z M396.6613,362.2345 C396.653487,368.6759 391.4347,373.8945 384.9933,373.9025 L373.3253,373.9025 C364.9894,373.9025 357.2863,369.4533 353.1183,362.2345 C348.9503,355.0157 348.9503,346.1215 353.1183,338.9025 C357.2863,331.6835 364.9893,327.2345 373.3253,327.2345 L384.9933,327.2345 C391.4347,327.242312 396.6533,332.4611 396.6613,338.9025 L396.6613,362.2345 Z" id="Shape"></path>
        </g>
    </g>
</svg>